<svg width="37" height="32" viewBox="0 0 37 32" fill="none" xmlns="http://www.w3.org/2000/svg">
<path d="M2.98356 11.5062C2.54218 11.5057 2.1185 11.6797 1.80486 11.9903C1.49123 12.3009 1.31304 12.7228 1.30914 13.1642C1.30735 13.3171 1.32951 13.4695 1.37481 13.6156L5.61831 28.5787C5.81499 29.2776 6.23531 29.8928 6.81493 30.3301C7.39455 30.7674 8.10153 31.0027 8.82761 31H27.9357C28.6631 31.0006 29.3711 30.7648 29.9529 30.3281C30.5347 29.8914 30.9589 29.2774 31.1614 28.5787L35.4049 13.6156L35.4541 13.1642C35.4502 12.7228 35.272 12.3009 34.9584 11.9903C34.6448 11.6797 34.2211 11.5057 33.7797 11.5062H2.98356ZM18.8511 24.6446C18.1689 24.6412 17.503 24.4358 16.9374 24.0543C16.3718 23.6728 15.9319 23.1323 15.6732 22.5011C15.4145 21.8698 15.3486 21.176 15.4838 20.5074C15.6189 19.8387 15.9492 19.225 16.4328 18.7438C16.9164 18.2626 17.5317 17.9354 18.201 17.8036C18.8704 17.6717 19.5638 17.7411 20.1937 18.003C20.8237 18.2648 21.362 18.7074 21.7407 19.2749C22.1193 19.8424 22.3214 20.5093 22.3214 21.1915C22.3171 22.109 21.9495 22.9874 21.2992 23.6345C20.6488 24.2816 19.7686 24.6448 18.8511 24.6446V24.6446Z" stroke="black" stroke-width="2" stroke-linejoin="round"/>
<path d="M10.502 11.5061L18.3816 1L26.2613 11.5061" stroke="black" stroke-width="2" stroke-linejoin="round"/>
</svg>
